<?xml version="1.0" encoding="UTF-8" standalone="no"?>
<!-- Created with Inkscape (http://www.inkscape.org/) -->

<svg
   width="700"
   height="700"
   viewBox="0 0 185.20833 185.20833"
   version="1.1"
   id="svg1"
   xmlns="http://www.w3.org/2000/svg"
   xmlns:svg="http://www.w3.org/2000/svg">
  <defs
     id="defs1" />
  <g
     id="layer1"
     style="display:none">
    <path
       d="m 81.358528,85.189585 c -3.23589,0 -5.84096,2.60507 -5.84096,5.840963 v 17.548472 c 0,3.23589 2.60507,5.84096 5.84096,5.84096 h 35.613692 c 3.2359,0 5.84097,-2.60507 5.84097,-5.84096 V 91.030548 c 0,-3.235893 -2.60507,-5.840963 -5.84097,-5.840963 z m -1.01233,1.865989 h 37.630362 c 1.55651,0 2.80958,1.253069 2.80958,2.809575 v 19.739381 c 0,1.55651 -1.25307,2.80958 -2.80958,2.80958 H 80.346198 c -1.5565,0 -2.80957,-1.25307 -2.80957,-2.80958 V 89.865149 c 0,-1.556506 1.25307,-2.809575 2.80957,-2.809575 z"
       style="display:inline;opacity:0.928571;fill:#000044;fill-rule:evenodd;stroke:#ab4040;stroke-width:0;stroke-linejoin:round;paint-order:stroke fill markers"
       id="path14" />
    <path
       d="m 94.678118,116.6356 h -7.31006 l -15.29425,3.27462 c -1.12324,0.24052 -2.91919,-0.35281 -4.02636,-1.33017 l -13.32637,-11.76376 -1.45568,0.31152 c 0.037,0.0338 0.0747,0.0674 0.11303,0.10125 l 12.48269,11.01902 c 2.30176,2.03187 6.03457,3.2651 8.36976,2.76514 z"
       style="opacity:0.928571;fill:#000044;fill-rule:evenodd;stroke:#ab4040;stroke-width:0;stroke-linejoin:round;paint-order:stroke fill markers"
       id="path23" />
    <path
       d="m 53.489848,105.62372 c -0.54421,-0.76704 -0.36029,-1.44249 0.54588,-1.6365 l 20.04842,-4.161742 v -1.455744 l -20.6452,4.289266 c -1.82039,0.38976 -2.23837,1.71424 -1.24366,3.24185 z"
       style="opacity:0.928571;fill:#000044;fill-rule:evenodd;stroke:#ab4040;stroke-width:0;stroke-linejoin:round;paint-order:stroke fill markers"
       id="path21" />
    <path
       d="m 98.934538,116.6356 h -1.5178 c 0.0877,0.4842 -0.19135,0.8652 -0.83525,1.00306 l -27.15612,5.81422 c -1.12324,0.24052 -2.91879,-0.35282 -4.02596,-1.33016 L 51.358028,109.7281 c -1.10717,-0.97735 -1.094,-1.95773 0.0292,-2.19822 l 1.87812,-0.40207 c -0.45334,-0.41408 -0.81005,-0.82757 -1.07011,-1.22696 l -1.40476,0.30081 c -2.335184,0.49997 -2.362272,2.5382 -0.0605,4.57007 l 12.4827,11.01902 c 2.30176,2.03186 6.03497,3.26509 8.37015,2.76513 l 25.70044,-5.50236 c 1.48286,-0.31746 2.03517,-1.25538 1.65127,-2.41792 z"
       style="display:inline;opacity:0.928571;fill:#000044;fill-rule:evenodd;stroke:#ab4040;stroke-width:0;stroke-linejoin:round;paint-order:stroke fill markers"
       id="path24" />
    <path
       d="m 53.489848,105.62372 -1.29456,0.27713 c 0.26006,0.39939 0.61677,0.81288 1.07011,1.22696 l 1.45568,-0.31152 -0.71461,-0.63085 c -0.21398,-0.18889 -0.38625,-0.37797 -0.51662,-0.56172 z"
       style="display:inline;opacity:0.928571;fill:#000044;fill-rule:evenodd;stroke:#ab4040;stroke-width:0;stroke-linejoin:round;paint-order:stroke fill markers"
       id="path22" />
    <path
       d="m 98.278132,68.354768 c -1.29298,2.192458 -2.30465,3.823054 -3.03547,4.891175 2.30489,1.517855 4.01954,2.670117 5.143868,3.457153 0.61839,-1.292988 1.60203,-2.895051 2.95124,-4.806425 -1.23677,-0.787036 -2.9234,-1.96783 -5.059638,-3.541903 z"
       style="font-size:84.3253px;font-family:'النيل';-inkscape-font-specification:'النيل, Normal';letter-spacing:0.529167px;display:inline;opacity:0.928571;fill:#000030;fill-rule:evenodd;stroke:#ab4040;stroke-width:0;stroke-linejoin:round;paint-order:stroke fill markers"
       id="path28" />
    <path
       d="m 154.21484,58.670903 c -11.89292,-0.283422 -25.08545,9.539863 -39.5778,29.469298 -2.82687,0.136399 -7.01209,0.138208 -12.55538,0.0061 -3.057277,-0.07286 -5.864813,-0.894986 -8.422353,-2.466221 l -0.0154,12.588695 0.0158,0.09123 c 0.004,-0.05813 0.0108,-0.116527 0.0149,-0.174771 5.130446,0.529798 10.266663,0.805458 15.409243,0.826138 -1.40487,3.939958 -2.27557,6.618638 -2.61192,8.036988 -0.0146,0.61095 0.22536,1.12628 0.7196,1.5456 0.59502,0.42168 1.04771,0.48328 1.35735,0.18497 0.40314,0.01 0.6089,-0.18858 0.61861,-0.59589 2.09581,-3.3122 3.83168,-6.32755 5.20745,-9.045608 12.31061,-0.31793 21.46754,-1.576827 27.46982,-3.777104 8.03743,-2.966845 13.80445,-5.886133 17.30159,-8.757412 4.83409,-3.960136 7.32323,-8.944269 7.4664,-14.951982 0.2014,-8.451526 -3.93181,-12.778291 -12.39794,-12.980049 z m -7.70561,12.348299 c 3.72911,0.08887 6.78377,0.976853 9.16384,2.663709 1.78264,1.366968 2.6616,2.559455 2.63733,3.577712 -0.017,0.712779 -0.28361,1.317581 -0.79967,1.8147 -0.51607,0.497119 -0.87466,0.743377 -1.07624,0.738574 -1.96106,1.889051 -7.19822,3.7002 -15.71046,5.433128 -6.99072,1.361654 -11.44377,2.019947 -13.35874,1.974312 -0.40314,-0.0096 -1.61473,0.06307 -3.63533,0.21868 -1.91981,0.158015 -3.03093,0.233084 -3.33331,0.225878 6.20741,-6.576379 10.64493,-10.80044 13.3115,-12.672676 3.89786,-2.759845 8.16484,-4.084504 12.80108,-3.974017 z"
       style="font-size:84.3253px;font-family:'النيل';-inkscape-font-specification:'النيل, Normal';letter-spacing:0.529167px;display:inline;opacity:0.928571;fill:#000030;fill-rule:evenodd;stroke:#ab4040;stroke-width:0;stroke-linejoin:round;paint-order:stroke fill markers"
       id="path27" />
    <path
       d="m 38.608757,93.364562 0.01729,-0.141978 0.274329,-19.674276 c 2.446305,-2.308307 4.678593,-5.745246 6.697229,-10.311347 2.138534,4.139824 4.082522,8.279171 5.832259,12.418994 -6.207121,12.640752 -8.375998,18.759304 -8.491365,35.293865 0,12.26026 5.574994,18.84307 14.323624,23.93824 4.568724,2.54758 9.429117,3.82156 14.581095,3.82156 5.638002,0 20.307468,-2.17189 22.299698,-4.3726 2.818275,-3.24317 8.056244,-16.06936 9.772124,-20.99685 2.16346,-6.21276 15.56709,-35.422301 -5.229172,21.44029 -2.137998,5.9072 -18.433496,8.66833 -26.890505,8.66833 -23.084868,0 -31.490682,-8.39049 -33.186295,-50.084238 z"
       style="display:inline;opacity:0.928571;fill:#000030;fill-rule:evenodd;stroke:#ab4040;stroke-width:0;stroke-linejoin:round;paint-order:stroke fill markers"
       id="path26" />
    <path
       d="m 78.84121,82.051358 c -3.708325,0 -6.69373,3.181181 -6.69373,7.132693 v 21.429319 c 0,3.9515 2.985405,7.13268 6.69373,7.13268 h 40.81324 c 3.70832,0 6.69374,-3.18118 6.69374,-7.13268 V 89.184051 c 0,-3.951512 -2.98542,-7.132693 -6.69374,-7.132693 z m -1.160128,2.278653 h 43.124338 c 1.78376,0 3.21977,1.530185 3.21977,3.430912 v 24.104747 c 0,1.90073 -1.43601,3.43093 -3.21977,3.43093 H 77.681082 c -1.783746,0 -3.219763,-1.5302 -3.219763,-3.43093 V 87.760923 c 0,-1.900727 1.436017,-3.430912 3.219763,-3.430912 z"
       style="display:inline;opacity:0.928571;fill:#000044;fill-rule:evenodd;stroke:#ab4040;stroke-width:0;stroke-linejoin:round;paint-order:stroke fill markers"
       id="path29" />
  </g>
  <path
     id="path34"
     style="display:inline;opacity:0.928571;fill:#ffffff;fill-rule:evenodd;stroke:#ab4040;stroke-width:0;stroke-linejoin:round;paint-order:stroke fill markers"
     d="m 151.71155,46.862845 c -10.61176,-0.25289 -22.25817,7.540756 -34.93947,23.380485 h 0.37879 c 1.70038,0 3.24885,0.668789 4.42712,1.774052 4.31237,-4.410128 7.52157,-7.353904 9.62681,-8.832019 3.89786,-2.759845 8.16504,-4.084405 12.80128,-3.973918 3.72911,0.08887 6.78371,0.976548 9.16378,2.663404 1.78264,1.366968 2.66132,2.559302 2.63705,3.577559 -0.017,0.712779 -0.28337,1.317757 -0.79943,1.814876 -0.51607,0.497119 -0.87484,0.743259 -1.07642,0.738456 -1.96106,1.889051 -7.19792,3.700332 -15.71016,5.43326 -6.99072,1.361654 -11.4439,2.020192 -13.35887,1.974557 -0.20678,-0.0049 -0.62658,0.01167 -1.25884,0.05013 0.15739,0.608213 0.24185,1.249579 0.24185,1.912545 v 9.253698 c 6.47038,-0.636422 11.63564,-1.662147 15.49621,-3.077331 8.03743,-2.966845 13.80465,-5.886326 17.30179,-8.757605 4.83409,-3.960136 7.32304,-8.944346 7.46621,-14.952059 0.2014,-8.451526 -3.93157,-12.778328 -12.3977,-12.980086 z m -108.617139,4.56613 c -2.018636,4.566101 -4.250961,8.003208 -6.697266,10.311515 l -0.274402,19.674251 -0.01705,0.141593 c 1.695613,41.693746 10.101736,50.084286 33.186604,50.084286 8.457009,0 24.75235,-2.76101 26.890348,-8.66821 2.512779,-6.87061 4.526225,-13.54264 6.120555,-18.09243 h -2.548156 c -2.326261,5.88229 -5.940904,15.14686 -8.115274,17.64905 -1.99223,2.20071 -16.661928,4.37286 -22.29993,4.37286 -5.151978,0 -10.012298,-1.27441 -14.581022,-3.82199 -8.74863,-5.09517 -14.323673,-11.67782 -14.323673,-23.938079 0.115367,-16.534553 2.28435,-22.653214 8.491471,-35.293966 -1.749737,-4.139823 -3.693668,-8.279056 -5.832202,-12.41888 z m 52.151338,6.176367 c -1.29298,2.192458 -2.304654,3.823053 -3.035474,4.891174 2.30489,1.517855 4.01954,2.670117 5.143872,3.457153 0.618394,-1.292988 1.602034,-2.89505 2.951243,-4.806424 -1.236769,-0.787036 -2.923398,-1.96783 -5.059641,-3.541903 z M 78.855018,73.38164 c -3.23589,0 -5.840987,2.605094 -5.840987,5.840987 v 17.548284 c 0,3.235889 2.605097,5.840989 5.840987,5.840989 h 22.170222 2.43448 11.00915 c 3.2359,0 5.84098,-2.6051 5.84098,-5.840989 v -9.841778 -7.706506 c 0,-1.284951 -0.41052,-2.470472 -1.10846,-3.432866 -0.1782,-0.24573 -0.37552,-0.476846 -0.58911,-0.69143 -1.05649,-1.061415 -2.52056,-1.716691 -4.14341,-1.716691 h -0.14315 z m -1.012341,1.866036 h 13.311848 2.781226 18.992639 2.54507 c 1.55651,0 2.80913,1.253141 2.80913,2.809647 v 9.004618 10.73475 c 0,1.55651 -1.25262,2.809639 -2.80913,2.809639 H 104.1465 101.75181 77.842677 c -1.5565,0 -2.809131,-1.253129 -2.809131,-2.809639 V 78.057323 c 0,-1.556506 1.252631,-2.809647 2.809131,-2.809647 z m -6.261633,11.314037 -1.936833,0.40256 -18.708419,3.886586 c -1.82039,0.38976 -2.238561,1.71457 -1.243851,3.24218 l -1.404566,0.30075 c -2.335184,0.49997 -2.362234,2.537882 -0.06046,4.569752 l 12.482442,11.018969 c 2.30176,2.03186 6.034851,3.26516 8.370031,2.7652 l 25.700757,-5.50199 c 0.969377,-0.20753 1.541139,-0.68016 1.71359,-1.30741 0.09135,-0.33226 0.07041,-0.70796 -0.06253,-1.11053 h -1.517737 c 0.0877,0.4842 -0.191191,0.86518 -0.835091,1.00304 l -0.502295,0.10749 -26.654187,5.70663 c -1.12324,0.24052 -2.918424,-0.35281 -4.025594,-1.33015 L 48.854783,97.920191 c -1.10717,-0.97735 -1.094264,-1.95782 0.02894,-2.19831 l 1.878439,-0.402042 c 0.037,0.0338 0.07484,0.0674 0.113171,0.10128 l 12.482442,11.018971 c 2.30176,2.03187 6.034842,3.26516 8.370032,2.7652 l 15.259533,-3.26698 5.18728,-1.11053 h -7.309631 l -5.187797,1.11053 -10.106876,2.16369 c -1.12324,0.24052 -2.918941,-0.35279 -4.026111,-1.33015 L 52.217885,95.008229 51.5032,94.377259 c -0.21398,-0.18889 -0.386395,-0.37797 -0.516765,-0.56172 -0.54421,-0.76704 -0.35995,-1.44207 0.54622,-1.63608 l 18.111556,-3.75998 1.936833,-0.40204 z" />
</svg>
